<?xml version="1.0" encoding="utf-8"?>

<!DOCTYPE svg PUBLIC "-//W3C//DTD SVG 1.1//EN" "http://www.w3.org/Graphics/SVG/1.1/DTD/svg11.dtd">
<svg version="1.1" id="Layer_1" xmlns="http://www.w3.org/2000/svg" xmlns:xlink="http://www.w3.org/1999/xlink" x="0px" y="0px"
	 viewBox="0 0 1522 1678.954" enable-background="new 0 0 1522 1678.954" xml:space="preserve">
<g id="Man_Head_Silhouette">
</g>
<g>
	<path id="path19449_1_" d="M548.498,1639.477h781.666c-32.843-154.35-72.15-408.273-55.23-470.509
		c27.867-105.553,117.921-185.216,151.761-269.858c172.155-430.179-38.201-804.688-513.982-854.383
		C492.598,0.846,258.918,239.402,226.075,485.859c-3.481,26.388,0,52.776,12.442,80.161
		c-57.715,90.119-190.57,223.055-202.01,286.786c-6.968,38.337,38.311,51.78,60.206,65.224c20.899,6.971,43.785,1.99,57.715,18.92
		c9.951,12.448-3.481,33.359-6.47,48.794c-0.498,25.392-30.346,37.84-27.363,61.24c2.989,19.916,19.903,27.883,35.328,40.33
		c16.421,12.944-41.798,37.839-22.892,60.743c19.404,22.404,47.77,48.295,37.813,80.16
		c-14.429,49.291-42.296,100.573-19.405,138.911c22.892,37.84,54.732,60.244,103.991,70.2c60.671,0,121.653,0.931,182.7,1.327
		c33.999,0.221,64.926,19.568,80.147,49.97C542.592,1537.187,552.422,1587.5,548.498,1639.477z"/>
	<g>
		<path fill="#FFFFFF" d="M1113.257,418.473c0-114.751-74.558-212.085-177.872-246.211c-25.592-8.454-52.947-13.033-81.373-13.033
			c-30.249,0-59.286,5.181-86.276,14.703c-100.762,35.55-172.968,131.613-172.968,244.541c0,81.703,37.797,154.575,96.859,202.092
			c21.698,17.456,33.093,44.711,30.664,72.453l-57.503,656.798c-2.669,30.48,21.355,56.699,51.952,56.699h265.675
			c30.525,0,54.524-26.101,51.967-56.519L979.55,697.678c-2.384-28.365,9.643-56.135,32.218-73.472
			C1073.477,576.817,1113.257,502.291,1113.257,418.473z"/>
		<g>
			<g>
				<g>
					<path d="M1105.771,412.163c0,0-0.382,0.392-1.132,1.132c-0.752,0.739-1.867,1.837-3.36,3.227
						c-1.49,1.393-3.343,3.095-5.551,5.066c-0.551,0.494-1.125,1.003-1.722,1.528c-0.596,0.526-1.211,1.071-1.855,1.623
						c-0.642,0.555-1.305,1.125-1.993,1.707c-0.686,0.585-1.392,1.185-2.123,1.796c-5.835,4.903-13.08,10.677-21.657,16.961
						c-4.284,3.148-8.919,6.396-13.859,9.746c-4.944,3.345-10.225,6.744-15.802,10.192c-5.581,3.441-11.486,6.883-17.673,10.321
						c-6.191,3.43-12.693,6.803-19.46,10.114c-13.547,6.59-28.219,12.83-43.824,18.186c-7.794,2.699-15.831,5.138-24.05,7.323
						c-0.513,0.138-1.027,0.277-1.541,0.416c-0.516,0.13-1.033,0.26-1.55,0.39c-1.034,0.26-2.071,0.52-3.108,0.781
						c-0.519,0.129-1.037,0.265-1.558,0.387c-0.522,0.121-1.044,0.243-1.567,0.364c-1.045,0.243-2.092,0.486-3.14,0.729
						c-1.047,0.248-2.103,0.462-3.159,0.683c-1.056,0.22-2.114,0.441-3.172,0.662c-1.057,0.23-2.124,0.418-3.189,0.622
						c-1.065,0.201-2.132,0.403-3.2,0.605c-8.554,1.548-17.245,2.802-26.023,3.599c-8.776,0.812-17.629,1.249-26.49,1.259
						c-2.191-0.03-4.383-0.059-6.574-0.089c-2.235-0.081-4.47-0.162-6.703-0.244c-2.207-0.131-4.413-0.261-6.618-0.392
						c-2.2-0.179-4.399-0.359-6.595-0.538c-2.191-0.228-4.382-0.439-6.566-0.682c-2.179-0.282-4.358-0.545-6.528-0.843
						c-1.083-0.161-2.166-0.321-3.247-0.482l-1.622-0.241c-0.54-0.079-1.081-0.159-1.618-0.254
						c-1.076-0.182-2.151-0.363-3.225-0.544l-1.61-0.272l-0.804-0.136l-0.801-0.151c-1.068-0.202-2.134-0.403-3.2-0.604
						c-1.065-0.205-2.132-0.392-3.189-0.622c-1.059-0.221-2.116-0.442-3.172-0.662c-1.056-0.22-2.112-0.435-3.158-0.688
						c-1.048-0.243-2.095-0.486-3.14-0.729c-0.523-0.121-1.045-0.243-1.567-0.364c-0.521-0.123-1.039-0.259-1.558-0.387
						c-1.037-0.261-2.073-0.521-3.108-0.781c-0.517-0.13-1.034-0.26-1.55-0.39c-0.514-0.139-1.028-0.277-1.541-0.416
						c-1.026-0.277-2.051-0.554-3.074-0.83c-0.511-0.139-1.022-0.278-1.532-0.417c-0.508-0.147-1.016-0.293-1.523-0.439
						c-2.027-0.591-4.056-1.151-6.055-1.781c-2.004-0.614-4.003-1.22-5.974-1.884c-1.975-0.65-3.946-1.287-5.89-1.975
						c-15.604-5.355-30.275-11.596-43.821-18.187c-1.697-0.816-3.367-1.659-5.025-2.494c-1.663-0.825-3.296-1.678-4.92-2.518
						c-1.628-0.832-3.225-1.693-4.814-2.538c-1.594-0.835-3.149-1.712-4.7-2.564c-1.553-0.847-3.074-1.723-4.588-2.577
						c-1.517-0.85-3-1.726-4.477-2.581c-2.947-1.72-5.822-3.434-8.609-5.161c-2.79-1.721-5.503-3.435-8.138-5.134
						c-2.635-1.698-5.195-3.38-7.664-5.057c-2.472-1.672-4.865-3.324-7.176-4.948c-2.313-1.622-4.543-3.221-6.684-4.796
						c-8.578-6.282-15.823-12.055-21.659-16.957c-0.731-0.61-1.438-1.211-2.124-1.795c-0.688-0.582-1.351-1.152-1.993-1.707
						c-0.644-0.552-1.26-1.097-1.855-1.623c-0.597-0.524-1.171-1.033-1.722-1.527c-2.208-1.97-4.061-3.672-5.552-5.064
						c-1.494-1.389-2.609-2.487-3.361-3.226c-0.75-0.74-1.133-1.132-1.133-1.132l0.454-0.494c0,0,0.396,0.363,1.183,1.056
						c0.786,0.693,1.961,1.714,3.512,3.024c3.102,2.62,7.71,6.398,13.73,11.008c6.02,4.609,13.452,10.05,22.199,15.969
						c4.373,2.959,9.075,6.037,14.091,9.186c5.017,3.148,10.339,6.383,15.967,9.632c11.252,6.5,23.71,13.089,37.227,19.333
						c13.515,6.242,28.093,12.136,43.52,17.205c15.422,5.07,31.698,9.308,48.488,12.245c16.784,2.942,34.081,4.568,51.389,4.549
						c17.308,0.016,34.606-1.607,51.389-4.55c16.789-2.937,33.065-7.175,48.487-12.245c15.427-5.069,30.005-10.963,43.52-17.205
						c13.517-6.243,25.974-12.833,37.227-19.332c5.628-3.249,10.951-6.483,15.967-9.632c5.016-3.149,9.718-6.227,14.091-9.186
						c8.747-5.919,16.179-11.36,22.199-15.969c6.02-4.61,10.628-8.388,13.73-11.008c1.551-1.31,2.725-2.331,3.512-3.024
						c0.787-0.694,1.184-1.057,1.184-1.057L1105.771,412.163z"/>
				</g>
				<g>
					<path d="M602.481,411.915c0,0,0.377-0.391,1.122-1.135c0.746-0.743,1.857-1.843,3.335-3.246
						c1.476-1.406,3.315-3.123,5.511-5.104c2.192-1.986,4.746-4.233,7.644-6.708c5.796-4.95,12.991-10.788,21.511-17.158
						c4.262-3.182,8.86-6.489,13.771-9.89c1.231-0.846,2.484-1.693,3.789-2.493c1.304-0.801,2.633-1.598,3.992-2.378
						c2.712-1.572,5.456-3.231,8.294-4.865c11.338-6.561,23.893-13.216,37.525-19.526c13.63-6.309,28.342-12.271,43.926-17.406
						c15.579-5.135,32.036-9.436,49.032-12.424c16.99-2.993,34.52-4.656,52.078-4.651c17.558-0.005,35.088,1.658,52.078,4.651
						c16.996,2.987,33.453,7.288,49.032,12.424c15.584,5.135,30.296,11.098,43.926,17.406c13.633,6.31,26.188,12.965,37.525,19.526
						c2.839,1.633,5.583,3.293,8.29,4.873c1.359,0.781,2.691,1.573,3.989,2.383c1.303,0.803,2.544,1.67,3.774,2.517
						c4.91,3.403,9.508,6.708,13.767,9.893c8.519,6.369,15.716,12.204,21.515,17.148c2.901,2.471,5.455,4.716,7.65,6.698
						c2.199,1.978,4.039,3.692,5.518,5.095c1.481,1.401,2.594,2.497,3.341,3.238c0.747,0.742,1.125,1.132,1.125,1.132
						s-0.42-0.344-1.246-0.994c-0.826-0.651-2.06-1.605-3.679-2.835c-1.621-1.228-3.631-2.725-6.013-4.458
						c-2.385-1.729-5.14-3.695-8.254-5.852c-6.229-4.311-13.885-9.403-22.847-14.924c-4.481-2.76-9.281-5.638-14.398-8.564
						c-0.639-0.366-1.282-0.735-1.93-1.106c-0.643-0.378-1.288-0.76-1.935-1.149c-0.647-0.389-1.288-0.795-1.935-1.202
						c-0.642-0.413-1.293-0.822-1.949-1.231c-1.312-0.817-2.642-1.64-4.008-2.435c-1.364-0.799-2.734-1.623-4.137-2.422
						c-11.181-6.47-23.558-13.03-36.983-19.244c-13.423-6.213-27.898-12.078-43.207-17.123c-15.305-5.045-31.45-9.263-48.094-12.188
						c-16.638-2.931-33.777-4.555-50.918-4.55c-17.141-0.005-34.279,1.619-50.918,4.55c-16.644,2.925-32.788,7.143-48.094,12.188
						c-15.31,5.044-29.784,10.91-43.207,17.123c-13.425,6.214-25.802,12.774-36.983,19.244c-1.403,0.799-2.773,1.623-4.137,2.422
						c-1.367,0.795-2.692,1.625-4.004,2.442c-0.656,0.409-1.307,0.817-1.949,1.231c-0.646,0.407-1.288,0.813-1.931,1.207
						c-1.291,0.782-2.566,1.554-3.85,2.278c-5.116,2.927-9.916,5.804-14.395,8.567c-8.962,5.519-16.618,10.609-22.852,14.914
						c-3.116,2.153-5.872,4.118-8.26,5.843c-2.384,1.73-4.397,3.224-6.02,4.449c-1.621,1.228-2.858,2.179-3.685,2.828
						C602.902,411.572,602.481,411.915,602.481,411.915z"/>
				</g>
			</g>
			<g>
				<g>
					<circle cx="854.013" cy="411.915" r="80.835"/>
					<path fill="#FFFFFF" d="M854.013,493.421c-11.003,0-21.677-2.155-31.726-6.405c-9.706-4.105-18.422-9.982-25.908-17.467
						c-7.485-7.485-13.362-16.202-17.467-25.908c-4.25-10.049-6.405-20.723-6.405-31.726c0-11.003,2.155-21.677,6.405-31.726
						c4.105-9.706,9.982-18.422,17.467-25.908c7.485-7.485,16.202-13.362,25.908-17.467c10.049-4.25,20.723-6.405,31.726-6.405
						c11.003,0,21.677,2.155,31.726,6.405c9.706,4.105,18.422,9.982,25.908,17.467c7.485,7.485,13.362,16.202,17.467,25.908
						c4.25,10.049,6.405,20.723,6.405,31.726c0,11.003-2.155,21.677-6.405,31.726c-4.105,9.706-9.982,18.422-17.467,25.908
						c-7.485,7.485-16.202,13.362-25.908,17.467C875.69,491.266,865.016,493.421,854.013,493.421z M854.013,331.751
						c-44.203,0-80.165,35.962-80.165,80.165c0,44.203,35.962,80.165,80.165,80.165c44.203,0,80.165-35.962,80.165-80.165
						C934.177,367.712,898.216,331.751,854.013,331.751z"/>
				</g>
				<g>
					<circle cx="854.013" cy="411.915" r="72.752"/>
					<path fill="#FFFFFF" d="M854.013,485.338c-9.912,0-19.527-1.941-28.58-5.77c-8.743-3.698-16.595-8.992-23.338-15.735
						c-6.743-6.743-12.037-14.595-15.735-23.338c-3.829-9.052-5.77-18.668-5.77-28.58c0-9.912,1.941-19.527,5.77-28.58
						c3.698-8.743,8.992-16.595,15.735-23.338c6.743-6.743,14.595-12.037,23.338-15.735c9.052-3.829,18.668-5.77,28.58-5.77
						s19.527,1.941,28.58,5.77c8.743,3.698,16.595,8.992,23.338,15.735c6.743,6.743,12.037,14.595,15.735,23.338
						c3.829,9.052,5.77,18.668,5.77,28.58c0,9.912-1.941,19.527-5.77,28.58c-3.698,8.743-8.992,16.595-15.735,23.338
						c-6.743,6.743-14.595,12.037-23.338,15.735C873.54,483.397,863.924,485.338,854.013,485.338z M854.013,339.834
						c-39.746,0-72.081,32.335-72.081,72.081c0,39.746,32.336,72.081,72.081,72.081c39.746,0,72.081-32.336,72.081-72.081
						C926.094,372.169,893.758,339.834,854.013,339.834z"/>
				</g>
				<g>
					<circle cx="854.013" cy="411.915" r="65.477"/>
					<path fill="#FFFFFF" d="M854.013,478.063c-17.669,0-34.28-6.881-46.773-19.374c-12.493-12.493-19.374-29.105-19.374-46.773
						c0-17.669,6.88-34.28,19.374-46.773c12.494-12.494,29.105-19.374,46.773-19.374c17.669,0,34.28,6.881,46.773,19.374
						c12.494,12.494,19.374,29.105,19.374,46.773c0,17.669-6.88,34.28-19.374,46.773
						C888.292,471.182,871.681,478.063,854.013,478.063z M854.013,347.109c-35.734,0-64.806,29.072-64.806,64.806
						c0,35.734,29.072,64.806,64.806,64.806s64.806-29.072,64.806-64.806C918.818,376.181,889.747,347.109,854.013,347.109z"/>
				</g>
				<g>
					<circle cx="854.013" cy="411.915" r="58.929"/>
					<path fill="#FFFFFF" d="M854.013,471.515c-15.92,0-30.886-6.199-42.143-17.456c-11.257-11.257-17.456-26.224-17.456-42.143
						c0-15.92,6.199-30.886,17.456-42.143c11.257-11.257,26.224-17.456,42.143-17.456c15.92,0,30.886,6.199,42.144,17.456
						c11.257,11.257,17.456,26.224,17.456,42.143c0,15.92-6.199,30.886-17.456,42.143
						C884.899,465.315,869.932,471.515,854.013,471.515z M854.013,353.657c-32.124,0-58.258,26.134-58.258,58.258
						s26.135,58.258,58.258,58.258s58.258-26.135,58.258-58.258S886.136,353.657,854.013,353.657z"/>
				</g>
				<g>
					<circle cx="854.013" cy="411.915" r="53.036"/>
					<path fill="#FFFFFF" d="M854.013,465.622c-14.346,0-27.833-5.587-37.977-15.73c-10.144-10.144-15.73-23.631-15.73-37.977
						c0-14.346,5.587-27.833,15.73-37.976c10.144-10.144,23.631-15.73,37.977-15.73c14.346,0,27.833,5.586,37.977,15.73
						c10.144,10.144,15.73,23.631,15.73,37.976c0,14.346-5.586,27.833-15.73,37.977
						C881.845,460.036,868.358,465.622,854.013,465.622z M854.013,359.55c-28.874,0-52.365,23.491-52.365,52.365
						c0,28.875,23.491,52.366,52.365,52.366c28.874,0,52.365-23.491,52.365-52.366C906.378,383.041,882.887,359.55,854.013,359.55z"
						/>
				</g>
				<g>
					<circle cx="854.013" cy="411.915" r="47.733"/>
					<path fill="#FFFFFF" d="M854.013,460.318c-12.929,0-25.084-5.035-34.226-14.177c-9.142-9.142-14.177-21.297-14.177-34.227
						c0-12.929,5.035-25.084,14.177-34.226c9.142-9.142,21.297-14.177,34.226-14.177c12.929,0,25.084,5.035,34.226,14.177
						c9.142,9.142,14.177,21.297,14.177,34.226c0,12.929-5.035,25.084-14.177,34.227
						C879.097,455.284,866.941,460.318,854.013,460.318z M854.013,364.853c-25.95,0-47.062,21.112-47.062,47.062
						c0,25.95,21.112,47.062,47.062,47.062c25.95,0,47.062-21.112,47.062-47.062C901.074,385.965,879.962,364.853,854.013,364.853z"
						/>
				</g>
				<g>
					<circle cx="854.013" cy="411.915" r="42.959"/>
					<path fill="#FFFFFF" d="M854.013,455.545c-11.654,0-22.61-4.538-30.851-12.779c-8.241-8.241-12.779-19.197-12.779-30.851
						c0-11.654,4.538-22.61,12.779-30.851c8.241-8.241,19.197-12.779,30.851-12.779c11.654,0,22.61,4.538,30.851,12.779
						c8.24,8.241,12.779,19.197,12.779,30.851c0,11.654-4.538,22.61-12.779,30.851C876.623,451.007,865.667,455.545,854.013,455.545
						z M854.013,369.627c-23.318,0-42.289,18.971-42.289,42.288c0,23.318,18.971,42.289,42.289,42.289s42.289-18.971,42.289-42.289
						C896.301,388.597,877.331,369.627,854.013,369.627z"/>
				</g>
				<g>
					<circle cx="854.013" cy="411.915" r="38.663"/>
					<path fill="#FFFFFF" d="M854.013,451.249c-21.689,0-39.334-17.645-39.334-39.334c0-21.689,17.645-39.334,39.334-39.334
						c21.689,0,39.334,17.645,39.334,39.334C893.347,433.604,875.701,451.249,854.013,451.249z M854.013,373.923
						c-20.949,0-37.993,17.043-37.993,37.992c0,20.949,17.044,37.993,37.993,37.993c20.949,0,37.993-17.044,37.993-37.993
						C892.005,390.966,874.962,373.923,854.013,373.923z"/>
				</g>
				<g>
					<circle fill="#FFFFFF" cx="834.007" cy="403.476" r="8.44"/>
				</g>
			</g>
		</g>
	</g>
</g>
</svg>
