<svg xmlns="http://www.w3.org/2000/svg" xmlns:xlink="http://www.w3.org/1999/xlink" version="1.1" width="256" height="256" viewBox="0 0 256 256" xml:space="preserve">
<desc>Created with Fabric.js 1.7.22</desc>
<defs>
</defs>
<g transform="translate(128 128) scale(0.72 0.72)" style="">
	<g style="stroke: none; stroke-width: 0; stroke-dasharray: none; stroke-linecap: butt; stroke-linejoin: miter; stroke-miterlimit: 10; fill: none; fill-rule: nonzero; opacity: 1;" transform="translate(-175.05 -175.05000000000004) scale(3.89 3.89)" >
	<path d="M 32.105 4.619 c 4.217 -4.649 -10.151 -7.028 -12.728 -1.093 c -0.815 2.985 -1.343 5.776 -1.576 8.395 c -1.951 -0.565 -3.794 -1.907 -5.53 -4.022 c -1.718 -2.421 -4.919 3.904 -2.577 5.154 c 2.459 1.107 5.102 1.938 7.976 2.425 c 0.053 2.777 0.491 5.346 1.328 7.733 c -2.478 -0.393 -4.991 -1.679 -7.539 -3.849 c -2.791 -2.736 -5.464 6.208 -2.137 7.28 c 3.767 0.941 7.741 1.408 11.984 1.261 c 2.785 4.293 7.202 7.945 13.375 11.178 l 1.64 -3.618 C 22.136 24.717 22.232 14.49 32.105 4.619 z" style="stroke: none; stroke-width: 1; stroke-dasharray: none; stroke-linecap: butt; stroke-linejoin: miter; stroke-miterlimit: 10; fill: rgb(142,64,40); fill-rule: nonzero; opacity: 1;" transform=" matrix(1 0 0 1 0 0) " stroke-linecap="round" />
	<path d="M 57.895 4.619 C 53.679 -0.03 68.046 -2.409 70.623 3.526 c 0.815 2.985 1.343 5.776 1.576 8.395 c 1.951 -0.565 3.794 -1.907 5.53 -4.022 c 1.718 -2.421 4.919 3.904 2.577 5.154 c -2.459 1.107 -5.102 1.938 -7.976 2.425 c -0.053 2.777 -0.491 5.346 -1.328 7.733 c 2.478 -0.393 4.991 -1.679 7.539 -3.849 c 2.791 -2.736 5.464 6.208 2.137 7.28 c -3.767 0.941 -7.741 1.408 -11.984 1.261 c -2.785 4.293 -7.202 7.945 -13.375 11.178 l -1.64 -3.618 C 67.864 24.717 67.768 14.49 57.895 4.619 z" style="stroke: none; stroke-width: 1; stroke-dasharray: none; stroke-linecap: butt; stroke-linejoin: miter; stroke-miterlimit: 10; fill: rgb(142,64,40); fill-rule: nonzero; opacity: 1;" transform=" matrix(1 0 0 1 0 0) " stroke-linecap="round" />
	<ellipse cx="28.056" cy="35.967" rx="3.006" ry="7.067" style="stroke: none; stroke-width: 1; stroke-dasharray: none; stroke-linecap: butt; stroke-linejoin: miter; stroke-miterlimit: 10; fill: rgb(175,82,48); fill-rule: nonzero; opacity: 1;" transform=" matrix(0.2537 -0.9673 0.9673 0.2537 -13.8528 53.9867) "/>
	<ellipse cx="62.347" cy="35.966" rx="7.067" ry="3.006" style="stroke: none; stroke-width: 1; stroke-dasharray: none; stroke-linecap: butt; stroke-linejoin: miter; stroke-miterlimit: 10; fill: rgb(175,82,48); fill-rule: nonzero; opacity: 1;" transform=" matrix(0.9673 -0.2537 0.2537 0.9673 -7.0853 16.9933) "/>
	<ellipse cx="45.205" cy="75.91499999999999" rx="9.385" ry="12.155" style="stroke: none; stroke-width: 1; stroke-dasharray: none; stroke-linecap: butt; stroke-linejoin: miter; stroke-miterlimit: 10; fill: rgb(212,115,79); fill-rule: nonzero; opacity: 1;" transform=" matrix(1 0 0 1 0 0) "/>
	<ellipse cx="44.938" cy="74.016" rx="6.288" ry="7.976" style="stroke: none; stroke-width: 1; stroke-dasharray: none; stroke-linecap: butt; stroke-linejoin: miter; stroke-miterlimit: 10; fill: rgb(223,135,102); fill-rule: nonzero; opacity: 1;" transform=" matrix(1 0 0 1 0 0) "/>
	<path d="M 58.752 44.151 c 0.027 -0.348 0.044 -0.698 0.044 -1.053 c 0 -7.526 -6.101 -13.628 -13.627 -13.628 s -13.627 6.101 -13.627 13.628 c 0 0.372 0.019 0.74 0.048 1.105 c -3.179 2.506 -5.132 5.887 -5.132 9.611 c 0 7.725 8.393 13.988 18.746 13.988 s 18.746 -6.263 18.746 -13.988 C 63.951 50.065 61.97 46.663 58.752 44.151 z" style="stroke: none; stroke-width: 1; stroke-dasharray: none; stroke-linecap: butt; stroke-linejoin: miter; stroke-miterlimit: 10; fill: rgb(212,115,79); fill-rule: nonzero; opacity: 1;" transform=" matrix(1 0 0 1 0 0) " stroke-linecap="round" />
	<path d="M 56.59 35.351 c -5.361 -20.427 -16.864 -10.714 -22.43 -17.036 c -0.841 6.329 4.117 6.302 -0.461 17.036 C 41.355 32.008 48.986 31.984 56.59 35.351 z" style="stroke: none; stroke-width: 1; stroke-dasharray: none; stroke-linecap: butt; stroke-linejoin: miter; stroke-miterlimit: 10; fill: rgb(234,26,47); fill-rule: nonzero; opacity: 1;" transform=" matrix(1 0 0 1 0 0) " stroke-linecap="round" />
	<circle cx="33.963" cy="17.943" r="2.733" style="stroke: none; stroke-width: 1; stroke-dasharray: none; stroke-linecap: butt; stroke-linejoin: miter; stroke-miterlimit: 10; fill: rgb(245,249,255); fill-rule: nonzero; opacity: 1;" transform="  matrix(1 0 0 1 0 0) "/>
	<path d="M 33.087 35.183 c -0.021 0.058 -0.043 0.117 -0.065 0.176 c -0.253 0.675 0.402 1.333 1.077 1.079 c 7.464 -2.807 14.906 -2.797 22.324 0.081 c 0.646 0.251 1.3 -0.356 1.101 -1.02 c -0.003 -0.011 -0.007 -0.023 -0.01 -0.034 c -0.329 -1.092 -1.158 -1.961 -2.236 -2.336 c -6.644 -2.313 -13.306 -2.328 -19.987 -0.084 C 34.27 33.388 33.46 34.172 33.087 35.183 z" style="stroke: none; stroke-width: 1; stroke-dasharray: none; stroke-linecap: butt; stroke-linejoin: miter; stroke-miterlimit: 10; fill: rgb(245,249,255); fill-rule: nonzero; opacity: 1;" transform=" matrix(1 0 0 1 0 0) " stroke-linecap="round" />
	<path d="M 53.403 53.583 c 0 2.749 -3.671 4.707 -8.198 4.707 s -8.198 -1.958 -8.198 -4.707 c 0 -2.749 3.671 -4.977 8.198 -4.977 S 53.403 50.835 53.403 53.583 z" style="stroke: none; stroke-width: 1; stroke-dasharray: none; stroke-linecap: butt; stroke-linejoin: miter; stroke-miterlimit: 10; fill: rgb(175,82,48); fill-rule: nonzero; opacity: 1;" transform=" matrix(1 0 0 1 0 0) " stroke-linecap="round" />
	<path d="M 43.127 90 c 1.045 0 1.738 -1.08 1.307 -2.032 c -0.774 -1.71 -2.496 -2.9 -4.495 -2.9 c -1.999 0 -3.721 1.19 -4.495 2.9 C 35.013 88.92 35.707 90 36.752 90 H 43.127 z" style="stroke: none; stroke-width: 1; stroke-dasharray: none; stroke-linecap: butt; stroke-linejoin: miter; stroke-miterlimit: 10; fill: rgb(175,82,48); fill-rule: nonzero; opacity: 1;" transform=" matrix(1 0 0 1 0 0) " stroke-linecap="round" />
	<path d="M 53.657 90 c 1.045 0 1.738 -1.08 1.307 -2.032 c -0.774 -1.71 -2.496 -2.9 -4.495 -2.9 c -1.999 0 -3.721 1.19 -4.495 2.9 C 45.544 88.92 46.237 90 47.282 90 H 53.657 z" style="stroke: none; stroke-width: 1; stroke-dasharray: none; stroke-linecap: butt; stroke-linejoin: miter; stroke-miterlimit: 10; fill: rgb(175,82,48); fill-rule: nonzero; opacity: 1;" transform=" matrix(1 0 0 1 0 0) " stroke-linecap="round" />
	<path d="M 35.215 81.292 c 0.575 0.873 1.858 0.858 2.416 -0.026 c 1.002 -1.587 1.049 -3.679 -0.05 -5.349 s -3.04 -2.453 -4.894 -2.159 c -1.032 0.164 -1.553 1.337 -0.978 2.209 L 35.215 81.292 z" style="stroke: none; stroke-width: 1; stroke-dasharray: none; stroke-linecap: butt; stroke-linejoin: miter; stroke-miterlimit: 10; fill: rgb(175,82,48); fill-rule: nonzero; opacity: 1;" transform=" matrix(1 0 0 1 0 0) " stroke-linecap="round" />
	<path d="M 54.155 81.07 c -0.526 0.799 -1.701 0.785 -2.211 -0.023 c -0.917 -1.453 -0.96 -3.367 0.046 -4.895 c 1.006 -1.528 2.782 -2.245 4.479 -1.976 c 0.944 0.15 1.421 1.223 0.895 2.022 L 54.155 81.07 z" style="stroke: none; stroke-width: 1; stroke-dasharray: none; stroke-linecap: butt; stroke-linejoin: miter; stroke-miterlimit: 10; fill: rgb(175,82,48); fill-rule: nonzero; opacity: 1;" transform=" matrix(1 0 0 1 0 0) " stroke-linecap="round" />
	<path d="M 51.529 61.463 c -4.314 5.113 -8.517 5.19 -12.588 -0.025 c -0.335 -0.429 -0.022 -1.06 0.523 -1.06 h 11.56 C 51.582 60.377 51.888 61.036 51.529 61.463 z" style="stroke: none; stroke-width: 1; stroke-dasharray: none; stroke-linecap: butt; stroke-linejoin: miter; stroke-miterlimit: 10; fill: rgb(34,34,34); fill-rule: nonzero; opacity: 1;" transform=" matrix(1 0 0 1 0 0) " stroke-linecap="round" />
	<path d="M 37.141 47.098 c -0.097 -0.175 -0.157 -0.375 -0.18 -0.579 c -0.012 -0.194 0.001 -0.41 0.05 -0.604 c 0.101 -0.391 0.309 -0.745 0.566 -1.036 c 0.522 -0.577 1.217 -0.914 1.928 -1.023 c 0.712 -0.106 1.47 0.009 2.136 0.396 c 0.33 0.198 0.633 0.467 0.85 0.803 c 0.106 0.168 0.188 0.365 0.238 0.553 c 0.044 0.2 0.053 0.407 0.019 0.604 l -0.01 0.056 c -0.007 0.041 -0.046 0.068 -0.087 0.061 c -0.016 -0.003 -0.029 -0.01 -0.04 -0.02 c -0.093 -0.091 -0.177 -0.188 -0.273 -0.272 c -0.109 -0.07 -0.206 -0.153 -0.32 -0.211 c -0.224 -0.124 -0.464 -0.219 -0.715 -0.279 c -0.503 -0.12 -1.035 -0.123 -1.546 -0.037 c -0.514 0.073 -1.02 0.234 -1.461 0.502 c -0.22 0.134 -0.419 0.299 -0.591 0.487 c -0.09 0.091 -0.154 0.201 -0.235 0.302 c -0.063 0.11 -0.111 0.229 -0.169 0.345 c -0.019 0.037 -0.064 0.052 -0.101 0.034 c -0.014 -0.007 -0.025 -0.018 -0.032 -0.031 L 37.141 47.098 z" style="stroke: none; stroke-width: 1; stroke-dasharray: none; stroke-linecap: butt; stroke-linejoin: miter; stroke-miterlimit: 10; fill: rgb(34,34,34); fill-rule: nonzero; opacity: 1;" transform=" matrix(1 0 0 1 0 0) " stroke-linecap="round" />
	<path d="M 47.713 46.276 c -0.044 -0.195 -0.046 -0.404 -0.011 -0.606 c 0.043 -0.19 0.116 -0.393 0.217 -0.566 c 0.207 -0.347 0.506 -0.629 0.833 -0.836 c 0.663 -0.408 1.424 -0.537 2.138 -0.443 c 0.713 0.097 1.409 0.42 1.94 0.978 c 0.261 0.282 0.477 0.626 0.591 1.009 c 0.055 0.191 0.078 0.403 0.074 0.597 c -0.014 0.204 -0.063 0.406 -0.151 0.585 l -0.025 0.051 c -0.018 0.037 -0.063 0.053 -0.1 0.034 c -0.014 -0.007 -0.025 -0.018 -0.032 -0.031 c -0.064 -0.113 -0.117 -0.23 -0.186 -0.337 c -0.085 -0.097 -0.154 -0.205 -0.248 -0.292 c -0.18 -0.182 -0.384 -0.34 -0.608 -0.469 c -0.449 -0.256 -0.959 -0.408 -1.474 -0.468 c -0.513 -0.074 -1.045 -0.061 -1.543 0.072 c -0.249 0.067 -0.486 0.169 -0.704 0.302 c -0.112 0.062 -0.204 0.15 -0.31 0.224 c -0.092 0.088 -0.171 0.189 -0.259 0.284 c -0.028 0.03 -0.076 0.032 -0.106 0.004 c -0.012 -0.011 -0.019 -0.024 -0.022 -0.038 L 47.713 46.276 z" style="stroke: none; stroke-width: 1; stroke-dasharray: none; stroke-linecap: butt; stroke-linejoin: miter; stroke-miterlimit: 10; fill: rgb(34,34,34); fill-rule: nonzero; opacity: 1;" transform=" matrix(1 0 0 1 0 0) " stroke-linecap="round" />
	<path d="M 45.197 67.546 v 4.161 c 1.714 1.18 3.348 2.891 4.538 5.121 l 3.241 -2.776 C 50.18 70.935 47.561 68.831 45.197 67.546 z" style="stroke: none; stroke-width: 1; stroke-dasharray: none; stroke-linecap: butt; stroke-linejoin: miter; stroke-miterlimit: 10; fill: rgb(234,26,47); fill-rule: nonzero; opacity: 1;" transform=" matrix(1 0 0 1 0 0) " stroke-linecap="round" />
	<path d="M 53.683 69.486 c -8.64 3.235 -13.315 1.915 -17.495 0.026 c -0.463 -0.209 -0.76 -0.673 -0.76 -1.181 v -0.976 c 0 -0.907 0.908 -1.536 1.756 -1.213 c 4.596 1.751 9.633 2.206 15.582 -0.015 c 0.851 -0.318 1.758 0.304 1.758 1.212 v 0.93 C 54.525 68.811 54.189 69.297 53.683 69.486 z" style="stroke: none; stroke-width: 1; stroke-dasharray: none; stroke-linecap: butt; stroke-linejoin: miter; stroke-miterlimit: 10; fill: rgb(234,26,47); fill-rule: nonzero; opacity: 1;" transform=" matrix(1 0 0 1 0 0) " stroke-linecap="round" />
	<path d="M 45.338 67.623 c 1.364 0.757 2.812 1.785 4.328 3.122 c 0.202 -0.05 0.406 -0.102 0.612 -0.157 c -1.719 -1.261 -3.363 -2.238 -4.915 -2.965 C 45.355 67.623 45.346 67.623 45.338 67.623 z" style="stroke: none; stroke-width: 1; stroke-dasharray: none; stroke-linecap: butt; stroke-linejoin: miter; stroke-miterlimit: 10; fill: rgb(206,23,42); fill-rule: nonzero; opacity: 1;" transform=" matrix(1 0 0 1 0 0) " stroke-linecap="round" />
	<circle cx="44.943" cy="69.50299999999999" r="2.433" style="stroke: none; stroke-width: 1; stroke-dasharray: none; stroke-linecap: butt; stroke-linejoin: miter; stroke-miterlimit: 10; fill: rgb(234,26,47); fill-rule: nonzero; opacity: 1;" transform="  matrix(1 0 0 1 0 0) "/>
</g>
</g>
</svg>